<svg id="Capa_1" enable-background="new 0 0 512 512" height="512" viewBox="0 0 512 512" width="512" xmlns="http://www.w3.org/2000/svg"><g><g><path d="m488.468 95.677h-464.936c-8.854 0-16.032 7.178-16.032 16.032v288.581h497v-288.58c0-8.855-7.178-16.033-16.032-16.033z" fill="#e5646e"/><path d="m31.548 352.194v-256.517h-8.016c-8.854 0-16.032 7.178-16.032 16.032v288.581c0 8.854 7.179 16.032 16.032 16.032h464.935c8.854 0 16.032-7.178 16.032-16.032v-8.016h-432.87c-22.1 0-40.081-17.98-40.081-40.08z" fill="#db4655"/><path d="m344.177 223.935h-56.113v-56.113c0-4.427-3.589-8.016-8.016-8.016h-48.097c-4.427 0-8.016 3.589-8.016 8.016v56.113h-56.113c-4.427 0-8.016 3.589-8.016 8.016v48.097c0 4.427 3.589 8.016 8.016 8.016h56.113v56.113c0 4.427 3.589 8.016 8.016 8.016h48.097c4.427 0 8.016-3.589 8.016-8.016v-56.113h56.113c4.427 0 8.016-3.589 8.016-8.016v-48.097c.001-4.427-3.588-8.016-8.016-8.016z" fill="#fff"/></g><g><path d="m488.468 88.177h-464.936c-12.975 0-23.532 10.557-23.532 23.532v288.581c0 12.976 10.557 23.532 23.532 23.532h384.776c4.142 0 7.5-3.358 7.5-7.5s-3.358-7.5-7.5-7.5h-384.776c-4.705 0-8.532-3.828-8.532-8.532v-288.581c0-4.705 3.828-8.532 8.532-8.532h464.936c4.705 0 8.532 3.828 8.532 8.532v288.581c0 4.705-3.828 8.532-8.532 8.532h-48.1c-4.142 0-7.5 3.358-7.5 7.5s3.358 7.5 7.5 7.5h48.1c12.976 0 23.532-10.557 23.532-23.532v-288.581c0-12.975-10.557-23.532-23.532-23.532z"/><path d="m231.952 359.693h48.097c8.556 0 15.516-6.96 15.516-15.516v-48.613h48.613c8.556 0 15.516-6.96 15.516-15.516v-48.097c0-8.556-6.96-15.516-15.516-15.516h-48.613v-48.613c0-8.556-6.96-15.516-15.516-15.516h-48.097c-8.556 0-15.516 6.96-15.516 15.516v8.016c0 4.142 3.358 7.5 7.5 7.5s7.5-3.358 7.5-7.5v-8.016c0-.285.231-.516.516-.516h48.097c.285 0 .516.231.516.516v56.113c0 4.142 3.358 7.5 7.5 7.5h56.113c.285 0 .516.231.516.516v48.097c0 .285-.231.516-.516.516h-56.113c-4.142 0-7.5 3.358-7.5 7.5v56.113c0 .285-.231.516-.516.516h-48.097c-.285 0-.516-.231-.516-.516v-56.113c0-4.142-3.358-7.5-7.5-7.5h-56.113c-.285 0-.516-.231-.516-.516v-48.097c0-.285.231-.516.516-.516h56.113c4.142 0 7.5-3.358 7.5-7.5v-16.032c0-4.142-3.358-7.5-7.5-7.5s-7.5 3.358-7.5 7.5v8.532h-48.613c-8.556 0-15.516 6.96-15.516 15.516v48.097c0 8.556 6.96 15.516 15.516 15.516h48.613v48.613c0 8.556 6.96 15.516 15.516 15.516z"/></g></g></svg>