<?xml version="1.0" standalone="no"?>
<!DOCTYPE svg PUBLIC "-//W3C//DTD SVG 20010904//EN"
 "http://www.w3.org/TR/2001/REC-SVG-20010904/DTD/svg10.dtd">
<svg version="1.0" xmlns="http://www.w3.org/2000/svg"
 width="70.000000pt" height="50.000000pt" viewBox="0 0 70.000000 50.000000"
 preserveAspectRatio="xMidYMid meet">

<g transform="translate(0.000000,50.000000) scale(0.100000,-0.100000)"
fill="#000000" stroke="none">
<path d="M437 406 c-5 -14 10 -36 25 -36 4 0 8 11 8 25 0 27 -24 35 -33 11z"/>
<path d="M367 383 c-21 -6 -17 -29 5 -25 17 2 34 -29 43 -81 6 -30 3 -37 -14
-47 -29 -15 -41 -5 -38 33 2 32 2 32 -48 35 -58 3 -108 -22 -127 -64 -10 -22
-10 -28 3 -38 9 -6 20 -22 24 -36 11 -36 25 -50 50 -50 23 0 55 28 55 48 0 7
8 12 19 12 31 0 89 28 105 52 21 29 20 62 -1 121 -17 48 -27 53 -76 40z m-74
-229 c-6 -16 -39 -19 -48 -4 -10 17 3 28 29 23 16 -3 23 -10 19 -19z"/>
<path d="M470 246 c0 -7 -9 -24 -20 -38 -18 -24 -18 -26 -2 -59 21 -41 59 -50
86 -20 27 30 14 97 -24 116 -36 18 -40 19 -40 1z m48 -78 c-2 -15 -10 -23 -23
-23 -25 0 -32 32 -8 38 32 8 34 7 31 -15z"/>
</g>
</svg>
