<?xml version="1.0" standalone="no"?>
<!DOCTYPE svg PUBLIC "-//W3C//DTD SVG 20010904//EN"
 "http://www.w3.org/TR/2001/REC-SVG-20010904/DTD/svg10.dtd">
<svg version="1.0" xmlns="http://www.w3.org/2000/svg"
 width="70.000000pt" height="50.000000pt" viewBox="0 0 70.000000 50.000000"
 preserveAspectRatio="xMidYMid meet">

<g transform="translate(0.000000,50.000000) scale(0.100000,-0.100000)"
fill="#000000" stroke="none">
<path d="M225 376 c-61 -26 -111 -116 -103 -183 4 -35 26 -41 37 -10 10 26 29
37 65 37 24 0 56 -28 56 -48 0 -8 21 -12 60 -12 45 0 60 3 60 14 0 23 29 46
59 46 28 0 61 -26 61 -48 0 -7 11 -12 25 -12 54 0 17 88 -50 119 -23 11 -49
31 -59 45 -37 57 -142 82 -211 52z m63 -57 c-3 -33 -4 -34 -55 -37 -40 -2 -53
0 -53 11 0 30 84 85 103 67 5 -4 7 -23 5 -41z m116 4 c14 -14 26 -30 26 -34 0
-5 -27 -9 -60 -9 l-60 0 0 38 c0 21 3 41 6 45 10 10 62 -14 88 -40z"/>
<path d="M188 199 c-34 -19 -13 -99 25 -99 24 0 57 31 57 54 0 25 -28 56 -51
56 -8 0 -22 -5 -31 -11z m46 -50 c-8 -14 -34 -11 -34 4 0 8 3 17 7 20 9 9 34
-13 27 -24z"/>
<path d="M428 199 c-34 -19 -13 -99 25 -99 24 0 57 31 57 54 0 25 -28 56 -51
56 -8 0 -22 -5 -31 -11z m46 -50 c-8 -14 -34 -11 -34 4 0 8 3 17 7 20 9 9 34
-13 27 -24z"/>
</g>
</svg>
