<svg id="Capa_1" enable-background="new 0 0 512 512" height="512" viewBox="0 0 512 512" width="512" xmlns="http://www.w3.org/2000/svg"><g><g transform="matrix(.788 -.615 .615 .788 -137.688 343.318)"><ellipse cx="429.948" cy="371.7" fill="#514898" rx="62.973" ry="62.973"/><ellipse cx="429.948" cy="371.7" fill="#d6e0f4" rx="22.756" ry="22.756"/></g><g transform="matrix(.788 -.615 .615 .788 -208.656 137.105)"><ellipse cx="94.866" cy="371.7" fill="#514898" rx="62.973" ry="62.973"/><ellipse cx="94.866" cy="371.7" fill="#d6e0f4" rx="22.756" ry="22.756"/></g><path d="m429.948 275.397c-41.447 0-75.047 33.599-75.047 75.046 0 2.116.09 4.21.266 6.281.481 5.674 5.543 9.836 11.2 9.187l130.372-14.962c4.771-.548 8.275-4.848 7.698-9.616-4.496-37.15-36.126-65.936-74.489-65.936z" fill="#77d1b3"/><path d="m496.739 350.949-130.372 14.961c-5.63.65-10.698-3.433-11.188-9.073-.03-.4-.06-.8-.09-1.21l56.07-77.84c6-1.56 12.299-2.391 18.789-2.391 10.31 0 20.131 2.091 29.071 5.861-9.41 12.71-20.45 27.5-31.58 42.36-4.78 6.39.39 15.4 8.32 14.49l66.53-7.64c.97 3.52 1.7 7.14 2.15 10.85.57 4.771-2.92 9.082-7.7 9.632z" fill="#67b59f"/><path d="m21.285 316.973c0-35.42 12.688-84.682 80.152-106.762s144.201-15.413 160.403 8.991c-8.498 21.062-35.785 42.325-14.921 94.01.99 2.452 2.716 4.541 4.939 5.971 8.874 5.711 33.949 21.032 58.442 28.432 6.618 2 13.778-.389 17.876-5.957l40.898-55.582c2.195-2.984 3.313-6.619 3.163-10.321-.945-23.436-5.525-112.067-21.628-142.607h21.835s51.839 36.208 71.263 94.193c3.923 11.711 1.928 24.594-5.401 34.534-25.848 35.058-69.121 92.531-88.9 118.756-6.57 8.711-16.844 13.826-27.755 13.826h-129.921c-4.582 0-8.959-1.896-12.094-5.238l-21.796-23.24z" fill="#92e0c4"/><g fill="#77d1b3"><path d="m443.706 227.34c-19.423-57.985-71.263-94.193-71.263-94.193h-21.835c.866 1.642 1.696 3.461 2.497 5.42 15.241 12.42 51.219 45.519 66.88 92.274 4.069 12.146 1.999 25.508-5.602 35.818-26.809 36.361-71.691 95.97-92.205 123.17-1.263 1.674-2.659 3.219-4.165 4.627h3.635c10.911 0 21.185-5.115 27.755-13.826 19.779-26.225 63.052-83.698 88.9-118.756 7.331-9.94 9.326-22.823 5.403-34.534z"/><path d="m231.359 222.4c-8.814 21.845-37.115 43.898-15.475 97.504 1.026 2.543 2.817 4.709 5.122 6.193 9.203 5.923 35.21 21.814 60.614 29.489 6.864 2.074 14.29-.403 18.54-6.179l3.048-4.142c-22.09-7.92-43.333-20.923-51.351-26.083-2.223-1.431-3.949-3.52-4.939-5.971-20.864-51.685 6.422-72.947 14.921-94.01-12.33-18.573-59.725-26.868-111.41-20.041 38.978-.293 70.974 8.244 80.93 23.24z"/></g><path d="m443.706 227.34c-5.672-16.934-14.11-32.006-23.213-44.866-18.03 6.73-13.084 52.647-5.274 61.395 5.97 6.687 18.926 4.256 30.175.057.659-5.509.126-11.172-1.688-16.586z" fill="#f4daa7"/><path d="m13.98 327.343 156.172 58.187s43.557-11.268 53.944-64.843c8.782-45.291-43.5-72.283-93.824-63.94-44.38 7.358-93.659 36.717-118.301 52.971-6.797 4.484-5.621 14.782 2.009 17.625z" fill="#77d1b3"/><path d="m158.951 255.726c25.963 10.095 43.5 30.969 38.121 58.714-8.16 42.086-36.786 58.062-48.689 62.98l21.769 8.111s43.557-11.268 53.944-64.843c7.101-36.619-25.718-61.272-65.145-64.962z" fill="#67b59f"/><path d="m338.07 118.92 6.959 16.003c1.51 3.471 4.934 5.716 8.72 5.716h55.847c8.102 0 14.672-6.608 14.563-14.71-.187-13.853-2.479-33.994-13.202-44.443-4.542-4.426-11.442-5.376-17.144-2.6-18.438 8.975-39.048 19.598-50.649 25.635-5.22 2.716-7.441 9.004-5.094 14.399z" fill="#77d1b3"/><path d="m410.956 81.487c-4.542-4.426-11.442-5.376-17.144-2.6-3.694 1.798-7.474 3.663-11.252 5.543 10.94 10.045 14.089 29.821 14.891 43.528.304 5.193-2.179 9.885-6.132 12.682h18.276c8.102 0 14.672-6.608 14.563-14.71-.187-13.854-2.478-33.994-13.202-44.443z" fill="#d6e0f4"/><path d="m73.11 220.275h183.064s25.119-24.853 12.754-44.896-39.444-22.383-72.089-10.975-63.12 5.284-105.32-1.927c-42.384-7.242-49.02 57.798-18.409 57.798z" fill="#d09180"/><path d="m268.929 175.378c-9.551-15.482-27.887-20.393-50.781-16.572 10.503 2.262 18.909 7.665 24.404 16.572 12.365 20.043 4.975 44.896-12.754 44.896h26.378c17.727.001 25.117-24.853 12.753-44.896z" fill="#c77e67"/><g><path d="m511.884 340.424c-4.498-37.135-33.374-66.052-69.419-71.563.629-.852 1.259-1.706 1.87-2.534 4.648-6.302 7.353-13.637 8.455-21.192.023-.16.045-.319.061-.481.761-6.547.122-13.273-2.03-19.701-11.181-33.37-32.385-59.635-49.634-76.816h8.407c5.958 0 11.542-2.335 15.725-6.575 4.167-4.224 6.417-9.812 6.338-15.736-.216-16.014-3.075-37.639-15.468-49.713-6.739-6.567-17.051-8.163-25.66-3.972-18.778 9.141-39.906 20.041-50.828 25.725-8.672 4.513-12.41 15.074-8.509 24.043l3.863 8.883-5.101 3.169c-3.519 2.186-4.599 6.81-2.413 10.328 1.42 2.287 3.87 3.543 6.378 3.543 1.351 0 2.718-.365 3.95-1.13l4.59-2.851c1.696 1.504 3.684 2.65 5.842 3.38 11.847 35.852 15.568 107.173 16.444 128.828.08 1.979-.53 3.957-1.716 5.569l-6.14 8.34c-2.456 3.336-1.743 8.031 1.593 10.486 1.339.986 2.896 1.461 4.441 1.461 2.303 0 4.575-1.057 6.045-3.054l6.142-8.342c3.199-4.347 4.84-9.699 4.623-15.068-.853-21.085-4.367-88.177-15.483-127.315h14.926c8.552 7.41 19.967 18.466 30.819 32.652-2.977 3.183-5.732 7.899-7.47 14.928-4.334 17.532-.752 44.352 7.098 53.145 4.343 4.864 10.448 6.621 17.004 6.621 2.407 0 4.875-.252 7.339-.66-.524.89-1.085 1.762-1.705 2.601-26.471 35.907-70.954 94.961-88.851 118.684-5.123 6.792-13.258 10.847-21.762 10.847h-129.918c-1.41 0-2.787-.344-4.031-.962 15.095-8.629 36.62-27.054 43.761-63.881 3.601-18.572-1.484-35.571-14.707-49.159-19.418-19.955-53.845-29.223-87.705-23.607-33.822 5.607-70.077 23.379-97.036 39.104 6.408-26.51 22.309-46.868 47.415-60.679h169.442c-.356.599-.716 1.201-1.079 1.809-10.761 17.998-25.498 42.647-7.822 86.434 1.585 3.923 4.298 7.199 7.829 9.463 9.727 6.272 35.076 21.684 60.335 29.316 2.264.684 4.574 1.014 6.862 1.014 7.45 0 14.661-3.503 19.228-9.71l14.02-19.06c2.455-3.336 1.739-8.031-1.598-10.485s-8.031-1.74-10.485 1.598l-14.019 19.058c-2.215 3.008-6.1 4.304-9.67 3.227-24.095-7.281-49.371-22.938-56.56-27.574-.916-.588-1.621-1.441-2.034-2.465-14.884-36.871-3.371-56.128 6.788-73.119 2.487-4.161 4.855-8.136 6.774-12.208 4.361-2.262 8.054-5.887 10.714-10.653 6.831-12.24 5.716-29.11-2.839-42.978-13.677-22.171-43.182-27.316-80.946-14.117-16.318 5.703-32.838 7.159-55.24 4.87-4.111-.421-7.802 2.578-8.224 6.698-.421 4.121 2.578 7.803 6.698 8.224 24.399 2.495 43.433.757 61.713-5.631 41.804-14.608 57.559-1.363 63.231 7.833 4.556 7.385 7.284 19.232 2.507 27.793-2.098 3.759-5.085 5.665-8.878 5.665h-183.063c-4.247 0-7.291-1.94-9.304-5.932-3.974-7.878-2.38-20.42 3.629-28.551 3.688-4.991 10.644-10.502 22.821-8.422l11.843 2.032c4.086.7 7.959-2.046 8.657-6.128.698-4.083-2.045-7.959-6.128-8.657l-11.846-2.033c-15.372-2.628-28.658 2.449-37.411 14.293-9.39 12.705-11.475 31.303-4.958 44.221 2.038 4.041 4.832 7.302 8.179 9.677-24.732 18.13-39.697 43.929-43.703 75.618-2.507 1.596-4.871 3.128-7.048 4.564-5.513 3.637-8.475 9.972-7.728 16.532.746 6.563 5.057 12.074 11.249 14.381l19.72 7.347c-4.391 9.331-6.691 19.539-6.691 29.979 0 38.863 31.617 70.48 70.479 70.48 31.732 0 59.426-21.55 67.835-51.418l4.828 1.799c1.738.648 3.304.582 5.037.084l1.597 1.703c4.533 4.838 10.934 7.612 17.562 7.612h129.92c13.184 0 25.796-6.286 33.737-16.813 1.346-1.784 2.858-3.789 4.486-5.948 3.757 35.35 33.747 62.981 70.077 62.981 38.857 0 70.47-31.617 70.47-70.48 0-4.579-.446-9.109-1.313-13.548 3.727-.782 7.032-2.818 9.421-5.843 2.675-3.386 3.867-7.602 3.356-11.878zm-111.297-255.606c1.908 0 3.759.7 5.134 2.039 6.801 6.627 10.686 20.539 10.937 39.172.025 1.879-.691 3.655-2.017 4.999-1.342 1.36-3.135 2.109-5.047 2.109h-5.044c.364-1.822.499-3.707.387-5.619-.736-12.583-3.288-28.628-10.693-40.498.954-.468 1.906-.933 2.85-1.392 1.12-.545 2.317-.81 3.493-.81zm-55.64 31.11c-.772-1.775-.035-3.864 1.678-4.755 7.731-4.023 20.604-10.675 34.1-17.444 5.098 7.286 8.34 19.316 9.238 34.666.102 1.741-.457 3.411-1.524 4.743h-28.732l14.126-8.775c3.519-2.186 4.599-6.81 2.413-10.328-2.185-3.518-6.808-4.6-10.328-2.413l-17.984 11.172zm-329.929 202.365c-.063-.556-.006-1.597 1.084-2.316 24.73-16.313 72.606-44.738 115.397-51.832 28.718-4.759 58.654 2.985 74.502 19.27 9.645 9.912 13.356 22.306 10.732 35.842-7.559 38.987-33.774 53.289-44.188 57.511-.631.189-.89.376-2.185.833l-153.76-57.288c-1.229-.458-1.519-1.463-1.582-2.02zm95.102 53.402c0 8.415-6.841 15.26-15.25 15.26-8.414 0-15.26-6.846-15.26-15.26 0-3.904 1.487-7.59 4.084-10.377l26.408 9.839c.006.18.018.358.018.538zm-15.25 55.48c-30.591 0-55.479-24.888-55.479-55.48 0-8.642 1.992-17.082 5.801-24.722l23.883 8.898c-2.879 4.686-4.464 10.14-4.464 15.824 0 16.686 13.575 30.26 30.26 30.26 15.009 0 27.495-10.994 29.846-25.353l23.869 8.893c-6.197 24.132-28.31 41.68-53.716 41.68zm402.122-84.959c.034.283-.046.55-.237.791-.125.159-.406.434-.871.487l-119.447 13.707c16.823-22.359 38.09-50.699 55.594-74.257 33.206 1.014 60.948 26.15 64.961 59.272zm-51.793 29.479c0 8.415-6.841 15.26-15.25 15.26-8.414 0-15.26-6.846-15.26-15.26 0-1.298.17-2.591.496-3.842l28.253-3.242c1.14 2.166 1.761 4.589 1.761 7.084zm-24.386-132.823c-2.981-3.338-7.538-24.132-3.725-39.555.384-1.554 1.027-3.681 2.003-5.582 6.886 10.709 13.074 22.751 17.507 35.982.957 2.858 1.467 5.804 1.557 8.744-9.579 2.906-15.543 2.427-17.342.411zm9.136 188.303c-30.314 0-55.013-24.442-55.459-54.652l25.276-2.9c-.048.689-.077 1.38-.077 2.073 0 16.686 13.575 30.26 30.26 30.26 16.68 0 30.25-13.575 30.25-30.26 0-3.03-.46-6.01-1.33-8.855l25.292-2.902c.83 3.838 1.258 7.771 1.258 11.757-.001 30.591-24.884 55.479-55.47 55.479z"/><path d="m163.217 352.034c1.446-3.882-.528-8.201-4.409-9.646l-94.689-35.28c-3.881-1.445-8.2.528-9.646 4.409s.528 8.201 4.409 9.646l94.689 35.28c.863.322 1.748.474 2.618.474 3.042 0 5.904-1.865 7.028-4.883z"/><path d="m90.642 303.434 79.22 29.51c.863.321 1.747.474 2.617.474 3.042 0 5.905-1.865 7.029-4.884 1.446-3.882-.529-8.201-4.41-9.646l-79.22-29.51c-3.881-1.445-8.2.528-9.646 4.41-1.446 3.881.529 8.2 4.41 9.646z"/></g></g></svg>