<?xml version="1.0" encoding="UTF-8" standalone="no"?>
<svg
   xmlns:dc="http://purl.org/dc/elements/1.1/"
   xmlns:cc="http://creativecommons.org/ns#"
   xmlns:rdf="http://www.w3.org/1999/02/22-rdf-syntax-ns#"
   xmlns:svg="http://www.w3.org/2000/svg"
   xmlns="http://www.w3.org/2000/svg"
   xmlns:sodipodi="http://sodipodi.sourceforge.net/DTD/sodipodi-0.dtd"
   xmlns:inkscape="http://www.inkscape.org/namespaces/inkscape"
   sodipodi:docname="Logo.svg"
   inkscape:version="1.0 (4035a4fb49, 2020-05-01)"
   id="svg8"
   version="1.1"
   viewBox="0 0 396.87499 396.875"
   height="1500"
   width="1500">
  <defs
     id="defs2" />
  <sodipodi:namedview
     inkscape:pagecheckerboard="false"
     units="px"
     inkscape:guide-bbox="true"
     showguides="true"
     inkscape:snap-object-midpoints="true"
     inkscape:snap-midpoints="false"
     inkscape:object-paths="true"
     inkscape:snap-global="false"
     inkscape:window-maximized="1"
     inkscape:window-y="-8"
     inkscape:window-x="-8"
     inkscape:window-height="1017"
     inkscape:window-width="1920"
     showborder="true"
     showgrid="false"
     inkscape:document-rotation="0"
     inkscape:current-layer="layer5"
     inkscape:document-units="px"
     inkscape:cy="-32.151692"
     inkscape:cx="-639.53873"
     inkscape:zoom="0.175"
     inkscape:pageshadow="2"
     inkscape:pageopacity="0.0"
     borderopacity="1.0"
     bordercolor="#666666"
     pagecolor="#ffffff"
     id="base">
    <sodipodi:guide
       id="guide3368"
       orientation="0,-1"
       position="-1144.5119,295.4881" />
    <sodipodi:guide
       id="guide3370"
       orientation="1,0"
       position="0.37797619,703.32441" />
  </sodipodi:namedview>
  <metadata
     id="metadata5">
    <rdf:RDF>
      <cc:Work
         rdf:about="">
        <dc:format>image/svg+xml</dc:format>
        <dc:type
           rdf:resource="http://purl.org/dc/dcmitype/StillImage" />
        <dc:title></dc:title>
      </cc:Work>
    </rdf:RDF>
  </metadata>
  <g
     style="display:inline;opacity:1"
     inkscape:label="Layer 2"
     id="layer2"
     inkscape:groupmode="layer" />
  <g
     style="display:inline"
     inkscape:label="Layer 5"
     id="layer5"
     inkscape:groupmode="layer">
    <g
       transform="translate(1.5647092,10.130806)"
       id="g3390">
      <path
         id="path834"
         style="display:inline;opacity:1;fill:#c2e604;fill-opacity:1;fill-rule:evenodd;stroke:#000000;stroke-width:7.9375;stroke-miterlimit:4;stroke-dasharray:none"
         d="m 188.65357,14.972454 c -26.898,34.76474 -52.48717,70.59841 -75.37458,108.141236 -13.06972,21.54211 -25.205573,43.73095 -34.854173,67.03552 -4.66986,11.50347 -8.62749,23.31064 -10.75329,35.56661 -1.15412,7.03864 -1.31086,14.19595 -0.75539,21.30723 1.66268,23.79594 9.99484,47.14429 23.99841,66.5662 14.197173,19.79371 34.061453,35.6591 56.701923,44.84844 20.2013,8.26177 42.44368,11.29749 64.10141,8.78919 17.87316,-2.01962 35.44428,-7.80006 50.94052,-16.96202 18.99937,-11.1378 35.11752,-27.06792 46.32684,-46.00592 12.13258,-20.41909 18.58141,-44.16677 18.13205,-67.91284 -0.29101,-9.93612 -2.82363,-19.67734 -6.02331,-29.05433 -7.31058,-21.04312 -17.83499,-40.81115 -29.20432,-59.9205 -19.33242,-32.43125 -41.51173,-63.066256 -64.59912,-92.906986 -11.48964,-14.79038 -23.34069,-29.30371 -35.42017,-43.60902 -1.07227,1.3724 -2.14453,2.7448 -3.2168,4.11719 z" />
      <path
         id="path1033"
         style="display:inline;opacity:1;fill:#ffd42a;fill-opacity:1;fill-rule:evenodd;stroke-width:0.264583"
         d="m 313.74869,226.73586 c 0.14976,1.05715 0.30283,2.35682 0.45888,3.94239 0.16382,1.66434 0.33064,3.59917 0.4992,5.76089 0.068,0.87176 0.13821,2.15165 0.2067,3.09439 0.0241,-4.00937 -0.27212,-8.02697 -0.9927,-11.94294 -0.0512,-0.28641 -0.11792,-0.56904 -0.17208,-0.85473 z" />
      <circle
         style="display:inline;opacity:1;fill:#e6e6e6;fill-opacity:1;stroke:#000000;stroke-width:6.08542;stroke-miterlimit:4;stroke-dasharray:none"
         id="path1168"
         cx="196.24214"
         cy="178.93588"
         r="13.455475" />
      <circle
         r="13.455475"
         cy="210.75717"
         cx="136.43582"
         id="path1168-2"
         style="display:inline;opacity:1;fill:#e6e6e6;fill-opacity:1;stroke:#000000;stroke-width:6.08542;stroke-miterlimit:4;stroke-dasharray:none" />
      <circle
         style="display:inline;opacity:1;fill:#e6e6e6;fill-opacity:1;stroke:#000000;stroke-width:6.08542;stroke-miterlimit:4;stroke-dasharray:none"
         id="path1168-2-6"
         cx="185.6134"
         cy="230.00058"
         r="13.455475" />
      <circle
         r="13.455475"
         cy="247.10046"
         cx="263.41571"
         id="path1168-2-6-7"
         style="display:inline;opacity:1;fill:#e6e6e6;fill-opacity:1;stroke:#000000;stroke-width:6.08542;stroke-miterlimit:4;stroke-dasharray:none" />
      <circle
         style="display:inline;opacity:1;fill:#e6e6e6;fill-opacity:1;stroke:#000000;stroke-width:6.08542;stroke-miterlimit:4;stroke-dasharray:none"
         id="path1168-2-6-7-8"
         cx="194.11365"
         cy="314.81485"
         r="13.455475" />
      <path
         style="fill:none;stroke:#000000;stroke-width:0;stroke-linecap:butt;stroke-linejoin:miter;stroke-miterlimit:4;stroke-dasharray:none;stroke-opacity:1"
         d="m 263.4157,247.10046 h -45.46267 l -24.59148,24.59148 h -52.61948 l -43.783703,43.7837"
         id="path1288" />
      <path
         style="fill:none;stroke:#000000;stroke-width:0;stroke-linecap:butt;stroke-linejoin:miter;stroke-miterlimit:4;stroke-dasharray:none;stroke-opacity:1"
         d="m 185.61341,230.00058 h 30.90768 l 14.61398,-14.61398 92.49358,-10e-6"
         id="path1290" />
      <path
         style="fill:none;stroke:#000000;stroke-width:0;stroke-linecap:butt;stroke-linejoin:miter;stroke-miterlimit:4;stroke-dasharray:none;stroke-opacity:1"
         d="m 136.43581,210.75717 h 27.2615 l 6.94901,-6.949 h 149.20423"
         id="path1292" />
      <path
         style="fill:none;stroke:#000000;stroke-width:0;stroke-linecap:butt;stroke-linejoin:miter;stroke-miterlimit:4;stroke-dasharray:none;stroke-opacity:1"
         d="M 196.24215,178.93589 H 119.8651 l -27.536863,27.53686 h -19.86387"
         id="path1294" />
      <path
         style="fill:none;stroke:#000000;stroke-width:6.08542;stroke-linecap:butt;stroke-linejoin:miter;stroke-miterlimit:4;stroke-dasharray:none;stroke-opacity:1"
         d="m 149.89129,210.75717 h 13.80602 l 6.28083,-6.28083 h 150.11602"
         id="path1314"
         sodipodi:nodetypes="cccc" />
      <path
         style="fill:none;stroke:#000000;stroke-width:6.08542;stroke-linecap:butt;stroke-linejoin:miter;stroke-miterlimit:4;stroke-dasharray:none;stroke-opacity:1"
         d="m 199.06889,230.00058 h 32.24761 l 14.61398,-14.61398 77.69817,-10e-6"
         id="path1316"
         sodipodi:nodetypes="cccc" />
      <path
         style="fill:none;stroke:#000000;stroke-width:6.08542;stroke-linecap:butt;stroke-linejoin:miter;stroke-miterlimit:4;stroke-dasharray:none;stroke-opacity:1"
         d="m 253.32628,257.18988 -15.7182,15.7182 h -95.37436 l -46.716723,46.71673"
         id="path1318"
         sodipodi:nodetypes="cccc" />
      <path
         style="fill:none;stroke:#000000;stroke-width:6.08542;stroke-linecap:butt;stroke-linejoin:miter;stroke-miterlimit:4;stroke-dasharray:none;stroke-opacity:1"
         d="m 207.56912,314.81484 h 27.22189 l 32.56255,32.56256"
         id="path1320"
         sodipodi:nodetypes="ccc" />
      <path
         style="fill:none;stroke:#000000;stroke-width:6.08542;stroke-linecap:butt;stroke-linejoin:miter;stroke-miterlimit:4;stroke-dasharray:none;stroke-opacity:1"
         d="M 182.78667,178.93589 H 119.8651 l -27.536873,27.53686 h -19.86386"
         id="path1322"
         sodipodi:nodetypes="cccc" />
    </g>
  </g>
</svg>
